<?xml version="1.0" encoding="UTF-8"?>
<svg version="1.1" xmlns="http://www.w3.org/2000/svg" width="408" height="408">
<path d="M0 0 C1.06445343 -0.00014603 2.12890686 -0.00029205 3.22561646 -0.0004425 C6.71545508 0.00024963 10.20523915 0.00800908 13.69506836 0.01586914 C16.12601187 0.01773581 18.55695576 0.01915854 20.98789978 0.02015686 C27.36482799 0.02396245 33.74173318 0.03377593 40.11865234 0.04486084 C47.781324 0.05692259 55.44400338 0.06148653 63.10668182 0.06731415 C74.7286079 0.0769888 86.35048352 0.09615907 97.97241211 0.11352539 C97.97241211 20.24352539 97.97241211 40.37352539 97.97241211 61.11352539 C90.94186523 61.12770508 83.91131836 61.14188477 76.66772461 61.15649414 C72.20152903 61.17656196 67.73543534 61.19808965 63.26928711 61.22485352 C56.18754108 61.26715329 49.10605346 61.30418065 42.02416992 61.30908203 C36.3115942 61.31337487 30.59959789 61.34192022 24.88720322 61.38695717 C22.71287288 61.39990053 20.53847309 61.40425113 18.36410904 61.39967918 C15.30729625 61.39475083 12.25216245 61.42096564 9.19555664 61.45410156 C8.30578629 61.44547592 7.41601593 61.43685028 6.49928284 61.42796326 C-1.20414696 61.56704361 -7.95580491 64.04174241 -13.46508789 69.55102539 C-14.23852539 70.81946289 -14.23852539 70.81946289 -15.02758789 72.11352539 C-15.60508789 72.93852539 -16.18258789 73.76352539 -16.77758789 74.61352539 C-18.98453932 80.79298939 -19.25701703 87.52506342 -17.11352539 93.78149414 C-14.01575569 99.74719902 -9.78597581 104.42867425 -3.27758789 106.51977539 C-1.86546503 106.90157964 -0.4483533 107.26525669 0.97241211 107.61352539 C2.13776489 107.91915405 2.13776489 107.91915405 3.32666016 108.23095703 C10.36518638 110.04468026 17.46592488 111.5944151 24.56152344 113.16601562 C44.46838798 117.63518761 65.38712689 122.68162506 81.97241211 135.11352539 C82.30241211 136.10352539 82.63241211 137.09352539 82.97241211 138.11352539 C84.2964888 138.79839264 85.63150452 139.46222742 86.97241211 140.11352539 C89.22241211 142.11352539 89.22241211 142.11352539 90.97241211 144.11352539 C90.97241211 144.77352539 90.97241211 145.43352539 90.97241211 146.11352539 C91.96241211 146.44352539 92.95241211 146.77352539 93.97241211 147.11352539 C93.97241211 148.10352539 93.97241211 149.09352539 93.97241211 150.11352539 C94.96241211 150.44352539 95.95241211 150.77352539 96.97241211 151.11352539 C98.59846673 153.63495815 100.02727129 156.08721975 101.40991211 158.73852539 C101.80952148 159.50253662 102.20913086 160.26654785 102.62084961 161.05371094 C108.07868291 171.86760237 110.57629439 183.00610129 110.97241211 195.11352539 C111.01237305 195.90629883 111.05233398 196.69907227 111.09350586 197.51586914 C111.70982421 219.30453544 105.37898938 238.61741976 91.63647461 255.45336914 C89.97241211 257.11352539 89.97241211 257.11352539 87.97241211 257.11352539 C87.7081543 257.7077832 87.44389648 258.30204102 87.17163086 258.91430664 C81.30343723 269.6758474 64.15740789 277.48943959 52.97241211 281.11352539 C52.12678711 281.3984082 51.28116211 281.68329102 50.40991211 281.97680664 C36.93609797 286.10903743 22.40017247 285.25333777 8.44897461 285.21118164 C6.60810383 285.2093118 4.76723254 285.20789058 2.92636108 285.20689392 C-1.87061995 285.20311327 -6.66756972 285.19332213 -11.46453857 285.18218994 C-17.24592442 285.17005956 -23.02732084 285.16555235 -28.80871582 285.15973663 C-37.54836146 285.15010708 -46.28793875 285.13091965 -55.02758789 285.11352539 C-55.02758789 264.98352539 -55.02758789 244.85352539 -55.02758789 224.11352539 C-49.17868876 223.46364771 -44.05112725 222.99915154 -38.26391602 223.06347656 C-37.54554062 223.06975571 -36.82716522 223.07603485 -36.08702087 223.08250427 C-34.54513038 223.09623003 -33.00325796 223.11213455 -31.46141052 223.13005638 C-29.01346074 223.15699347 -26.56560517 223.17467459 -24.11755371 223.18952942 C-17.16340432 223.23198889 -10.2094417 223.27989993 -3.25561523 223.36035156 C1.01469716 223.40908679 5.28475853 223.43792544 9.55531311 223.45409584 C11.17234918 223.46393557 12.78935928 223.48105679 14.40623474 223.50588036 C27.9407324 223.9068944 27.9407324 223.9068944 39.53869629 217.66569519 C45.10099521 211.36936147 45.49879165 205.93300864 45.28881836 197.76196289 C44.77160213 191.79801277 42.95570311 188.99243265 38.59741211 184.86352539 C33.85162283 181.69966587 29.26039107 179.7484739 23.71069336 178.46508789 C22.51798828 178.18431396 21.3252832 177.90354004 20.09643555 177.61425781 C18.83863281 177.32526611 17.58083008 177.03627441 16.28491211 176.73852539 C13.67078813 176.12620033 11.05793276 175.50854375 8.44506836 174.89086914 C6.53298584 174.4401001 6.53298584 174.4401001 4.58227539 173.98022461 C-0.95459691 172.65086598 -6.45649311 171.20111777 -11.95214844 169.71166992 C-15.5153978 168.75127771 -19.07347672 167.87672706 -22.68383789 167.10961914 C-42.54456371 162.7589509 -61.74217285 148.46371227 -72.74633789 131.45727539 C-74.28893327 128.71838156 -75.68639551 125.9562276 -77.02758789 123.11352539 C-77.7062793 121.69233398 -77.7062793 121.69233398 -78.39868164 120.24243164 C-87.50537782 99.89423514 -88.10357187 75.05214477 -80.96118164 53.96508789 C-73.52050489 34.85998389 -73.52050489 34.85998389 -68.02758789 32.11352539 C-67.69758789 31.12352539 -67.36758789 30.13352539 -67.02758789 29.11352539 C-48.47691764 9.20951443 -27.2341441 -0.09921668 0 0 Z " fill="#A91A20" transform="translate(263.027587890625,79.886474609375)"/>
<path d="M0 0 C1.59895003 -0.00804935 3.19791181 -0.01378904 4.796875 -0.01855469 C5.68729492 -0.0219989 6.57771484 -0.02544312 7.49511719 -0.0289917 C20.46638009 0.12113866 31.32577934 5.04238092 42 12 C42.67804688 12.41636719 43.35609375 12.83273438 44.0546875 13.26171875 C55.83326671 21.13775666 64.27850056 35.69580214 67.8125 49.125 C68.78893281 54.12697388 69.30528055 59.07176008 69.56712341 64.1545105 C69.62908595 65.32458297 69.62908595 65.32458297 69.69230026 66.51829326 C70.14279643 75.81157189 70.13251703 85.10090667 70.11352539 94.40283203 C70.1132425 96.37590534 70.11340324 98.34897875 70.1139679 100.322052 C70.1142519 105.6183473 70.10842002 110.91461941 70.10139394 116.21090937 C70.09509366 121.76819901 70.09455136 127.32548932 70.09336853 132.88278198 C70.09027474 143.3794803 70.08208794 153.87616805 70.07201904 164.37286174 C70.06079692 176.33435608 70.05533216 188.29585095 70.05032361 200.25734925 C70.03990347 224.83824002 70.02158257 249.41911633 70 274 C111.085 274.495 111.085 274.495 153 275 C154.0611791 278.18353731 154.08692246 280.32541628 154.02172852 283.66479492 C154.00163223 284.82577194 153.98153595 285.98674896 153.96083069 287.1829071 C153.93379562 288.43610245 153.90676056 289.68929779 153.87890625 290.98046875 C153.85529526 292.26359451 153.83168427 293.54672028 153.80735779 294.86872864 C153.74458633 298.27678463 153.67550022 301.68468448 153.60510254 305.09259033 C153.5343563 308.5714203 153.46957701 312.0503608 153.40429688 315.52929688 C153.27537406 322.35298471 153.13978049 329.17652618 153 336 C133.19893439 336.02332748 113.39787156 336.04097843 93.59679508 336.05181217 C84.40347396 336.05697545 75.21016136 336.06401875 66.0168457 336.07543945 C58.00692964 336.08538532 49.99701975 336.09185319 41.98709768 336.09408849 C37.74322747 336.09539577 33.4993749 336.09848266 29.25551033 336.10573006 C25.2657093 336.11248874 21.2759333 336.11461727 17.28612709 336.11310768 C15.81750605 336.11338408 14.34888421 336.1153901 12.8802681 336.11920547 C10.88377224 336.12414028 8.88726313 336.12239813 6.89076233 336.12025452 C5.77078385 336.12117631 4.65080538 336.1220981 3.49688816 336.12304783 C1 336 1 336 0 335 C-0.09744479 333.2172343 -0.12371428 331.43055974 -0.12304783 329.64513302 C-0.12503888 328.47620445 -0.12702993 327.30727589 -0.12908131 326.10292524 C-0.12616847 324.8023704 -0.12325563 323.50181557 -0.12025452 322.16184998 C-0.1206901 320.7791786 -0.12156476 319.3965073 -0.12284368 318.01383644 C-0.12509124 314.19655812 -0.12106382 310.37930759 -0.11606562 306.56203282 C-0.11176502 302.4522642 -0.11320727 298.34249728 -0.1139679 294.23272705 C-0.11449338 287.10635949 -0.11134404 279.98000105 -0.10573006 272.85363579 C-0.09761835 262.54998615 -0.09500018 252.24634095 -0.09374207 241.94268847 C-0.09155103 225.22749619 -0.08488954 208.51230878 -0.07543945 191.79711914 C-0.06626668 175.55558293 -0.05918519 159.31404804 -0.05493164 143.07250977 C-0.05466892 142.07212897 -0.05440619 141.07174818 -0.05413551 140.04105281 C-0.05283051 135.02265958 -0.0515668 130.00426635 -0.05032361 124.9858731 C-0.03994938 83.32391201 -0.02232965 41.66195629 0 0 Z " fill="#AB1A20" transform="translate(36,29)"/>
<path d="M0 0 C3.3 0 6.6 0 10 0 C10 0.33 10 0.66 10 1 C7.03 1 4.06 1 1 1 C1 110.89 1 220.78 1 334 C50.5 334 100 334 151 334 C151 315.19 151 296.38 151 277 C123.94 277 96.88 277 69 277 C67.40036997 273.80073993 67.84979687 270.32660982 67.84851074 266.81208801 C67.84427833 265.95524955 67.84004592 265.09841109 67.83568525 264.21560782 C67.82260708 261.32708648 67.81662227 258.43859278 67.81054688 255.55004883 C67.80260788 253.48544647 67.79422021 251.4208458 67.78541565 249.35624695 C67.76732288 244.89933064 67.75231929 240.44241813 67.73963928 235.98548317 C67.71943288 228.92834234 67.691773 221.87124292 67.66296387 214.81413269 C67.60279602 199.81360797 67.55108756 184.81305795 67.5 169.8125 C67.44488044 153.66330716 67.38814878 137.51412702 67.32245111 121.36497325 C67.29423466 114.36104986 67.27058916 107.35713085 67.25052643 100.35317957 C67.23704431 95.97448456 67.21963641 91.59581123 67.20121574 87.21713448 C67.19352364 85.19967962 67.18742669 83.18221789 67.18312263 81.16475296 C67.15854017 70.06560323 66.92450559 59.06464725 66 48 C69.31060807 52.9659121 69.24860487 58.19882112 69.55540466 64.037323 C69.59755897 64.82583078 69.63971328 65.61433857 69.68314499 66.42674053 C70.14009721 75.75094053 70.13258067 85.06973653 70.11352539 94.40283203 C70.1132425 96.37590534 70.11340324 98.34897875 70.1139679 100.322052 C70.1142519 105.6183473 70.10842002 110.91461941 70.10139394 116.21090937 C70.09509366 121.76819901 70.09455136 127.32548932 70.09336853 132.88278198 C70.09027474 143.3794803 70.08208794 153.87616805 70.07201904 164.37286174 C70.06079692 176.33435608 70.05533216 188.29585095 70.05032361 200.25734925 C70.03990347 224.83824002 70.02158257 249.41911633 70 274 C111.085 274.495 111.085 274.495 153 275 C154.0611791 278.18353731 154.08692246 280.32541628 154.02172852 283.66479492 C154.00163223 284.82577194 153.98153595 285.98674896 153.96083069 287.1829071 C153.93379562 288.43610245 153.90676056 289.68929779 153.87890625 290.98046875 C153.85529526 292.26359451 153.83168427 293.54672028 153.80735779 294.86872864 C153.74458633 298.27678463 153.67550022 301.68468448 153.60510254 305.09259033 C153.5343563 308.5714203 153.46957701 312.0503608 153.40429688 315.52929688 C153.27537406 322.35298471 153.13978049 329.17652618 153 336 C133.19893439 336.02332748 113.39787156 336.04097843 93.59679508 336.05181217 C84.40347396 336.05697545 75.21016136 336.06401875 66.0168457 336.07543945 C58.00692964 336.08538532 49.99701975 336.09185319 41.98709768 336.09408849 C37.74322747 336.09539577 33.4993749 336.09848266 29.25551033 336.10573006 C25.2657093 336.11248874 21.2759333 336.11461727 17.28612709 336.11310768 C15.81750605 336.11338408 14.34888421 336.1153901 12.8802681 336.11920547 C10.88377224 336.12414028 8.88726313 336.12239813 6.89076233 336.12025452 C5.77078385 336.12117631 4.65080538 336.1220981 3.49688816 336.12304783 C1 336 1 336 0 335 C-0.09744479 333.2172343 -0.12371428 331.43055974 -0.12304783 329.64513302 C-0.12503888 328.47620445 -0.12702993 327.30727589 -0.12908131 326.10292524 C-0.12616847 324.8023704 -0.12325563 323.50181557 -0.12025452 322.16184998 C-0.1206901 320.7791786 -0.12156476 319.3965073 -0.12284368 318.01383644 C-0.12509124 314.19655812 -0.12106382 310.37930759 -0.11606562 306.56203282 C-0.11176502 302.4522642 -0.11320727 298.34249728 -0.1139679 294.23272705 C-0.11449338 287.10635949 -0.11134404 279.98000105 -0.10573006 272.85363579 C-0.09761835 262.54998615 -0.09500018 252.24634095 -0.09374207 241.94268847 C-0.09155103 225.22749619 -0.08488954 208.51230878 -0.07543945 191.79711914 C-0.06626668 175.55558293 -0.05918519 159.31404804 -0.05493164 143.07250977 C-0.05466892 142.07212897 -0.05440619 141.07174818 -0.05413551 140.04105281 C-0.05283051 135.02265958 -0.0515668 130.00426635 -0.05032361 124.9858731 C-0.03994938 83.32391201 -0.02232965 41.66195629 0 0 Z " fill="#5C0F12" transform="translate(36,29)"/>
<path d="M0 0 C1.06445343 -0.00014603 2.12890686 -0.00029205 3.22561646 -0.0004425 C6.71545508 0.00024963 10.20523915 0.00800908 13.69506836 0.01586914 C16.12601187 0.01773581 18.55695576 0.01915854 20.98789978 0.02015686 C27.36482799 0.02396245 33.74173318 0.03377593 40.11865234 0.04486084 C47.781324 0.05692259 55.44400338 0.06148653 63.10668182 0.06731415 C74.7286079 0.0769888 86.35048352 0.09615907 97.97241211 0.11352539 C97.97241211 20.24352539 97.97241211 40.37352539 97.97241211 61.11352539 C90.93026367 61.1509082 83.88811523 61.18829102 76.63256836 61.22680664 C72.16184111 61.25709519 67.69115325 61.28824894 63.22045898 61.32250977 C56.12990335 61.37676559 49.03942562 61.42787856 41.94873047 61.45996094 C36.22978707 61.48603758 30.51110635 61.52647127 24.79232597 61.57671165 C22.61437697 61.59335081 20.43638256 61.60488341 18.25837898 61.6111393 C15.19931863 61.62081234 12.14092585 61.64891053 9.08203125 61.68115234 C8.18866562 61.67971725 7.29529999 61.67828217 6.37486267 61.67680359 C0.42884623 61.76499189 -4.50417736 62.91882821 -10.02758789 65.11352539 C-10.02758789 64.12352539 -10.02758789 63.13352539 -10.02758789 62.11352539 C-7.11568318 60.45764448 -5.0151016 59.85973855 -1.67425537 59.83505249 C-0.810513 59.82388901 0.05322937 59.81272552 0.94314575 59.80122375 C1.88253998 59.79906357 2.8219342 59.79690338 3.78979492 59.79467773 C4.78524323 59.78463211 5.78069153 59.77458649 6.80630493 59.76423645 C10.09604313 59.73334994 13.38569973 59.71635395 16.67553711 59.69946289 C18.95669255 59.68075566 21.23784105 59.66118259 23.51898193 59.64077759 C29.52274481 59.58940347 35.52653014 59.5498059 41.53039551 59.51263428 C48.73413761 59.46559381 55.93776787 59.40397332 63.14141846 59.3447876 C74.085038 59.25651103 85.0286354 59.18679239 95.97241211 59.11352539 C95.97241211 40.30352539 95.97241211 21.49352539 95.97241211 2.11352539 C76.80147249 2.26224086 76.80147249 2.26224086 57.63061523 2.42016602 C49.81723974 2.48657839 42.00386549 2.55188798 34.19042969 2.61083984 C27.89456067 2.65840871 21.59874809 2.71074852 15.30294609 2.76646614 C12.89507888 2.78692369 10.48719616 2.805631 8.07930183 2.82259941 C4.71947726 2.8465684 1.3597605 2.87663286 -2 2.90820312 C-3.00628448 2.91395859 -4.01256897 2.91971405 -5.04934692 2.92564392 C-6.41450188 2.94032715 -6.41450188 2.94032715 -7.80723572 2.95530701 C-9.00049674 2.96498583 -9.00049674 2.96498583 -10.21786404 2.97486019 C-12.04869812 2.9176295 -12.04869812 2.9176295 -13.02758789 4.11352539 C-14.54686827 4.18532503 -16.06926271 4.19744546 -17.59008789 4.17602539 C-18.41637695 4.16700195 -19.24266602 4.15797852 -20.09399414 4.14868164 C-20.73208008 4.13708008 -21.37016602 4.12547852 -22.02758789 4.11352539 C-22.35758789 5.10352539 -22.68758789 6.09352539 -23.02758789 7.11352539 C-26.65758789 7.11352539 -30.28758789 7.11352539 -34.02758789 7.11352539 C-34.35758789 8.10352539 -34.68758789 9.09352539 -35.02758789 10.11352539 C-36.01758789 10.11352539 -37.00758789 10.11352539 -38.02758789 10.11352539 C-38.35758789 11.10352539 -38.68758789 12.09352539 -39.02758789 13.11352539 C-41.46118164 14.31665039 -41.46118164 14.31665039 -44.46508789 15.36352539 C-45.9481543 15.89719727 -45.9481543 15.89719727 -47.46118164 16.44165039 C-50.02758789 17.11352539 -50.02758789 17.11352539 -52.02758789 16.11352539 C-36.85360679 3.41749717 -19.19989005 -0.0699471 0 0 Z " fill="#65171B" transform="translate(263.027587890625,79.886474609375)"/>
<path d="M0 0 C0.33 0 0.66 0 1 0 C0.67 2.31 0.34 4.62 0 7 C-0.66 7 -1.32 7 -2 7 C-2.0928125 7.86625 -2.0928125 7.86625 -2.1875 8.75 C-3.51928236 12.4380127 -6.48914498 13.98767504 -9.6461792 16.10299683 C-13.16055453 17.44226863 -16.64090191 17.26080771 -20.34863281 17.22705078 C-21.18802399 17.22734283 -22.02741516 17.22763489 -22.89224243 17.22793579 C-25.66264231 17.22654409 -28.43277219 17.21099039 -31.203125 17.1953125 C-33.12554782 17.1915818 -35.04797255 17.1887351 -36.97039795 17.18673706 C-42.02731588 17.17910508 -47.08411872 17.15946027 -52.14099121 17.1373291 C-58.20995709 17.11326198 -64.27896147 17.10408762 -70.34796143 17.09242249 C-79.56538764 17.07303567 -88.78256136 17.03471002 -98 17 C-98.33 36.14 -98.66 55.28 -99 75 C-71.94 75 -44.88 75 -17 75 C-17 75.33 -17 75.66 -17 76 C-44.39 76 -71.78 76 -100 76 C-100 55.87 -100 35.74 -100 15 C-94.15110087 14.35012232 -89.02353936 13.88562615 -83.23632812 13.94995117 C-82.15876503 13.95936989 -82.15876503 13.95936989 -81.05943298 13.96897888 C-79.51754249 13.98270463 -77.97567007 13.99860916 -76.43382263 14.01653099 C-73.98587285 14.04346808 -71.53801728 14.0611492 -69.08996582 14.07600403 C-62.13581643 14.1184635 -55.18185381 14.16637454 -48.22802734 14.24682617 C-43.95771495 14.2955614 -39.68765357 14.32440005 -35.417099 14.34057045 C-33.80006293 14.35041018 -32.18305283 14.3675314 -30.56617737 14.39235497 C-17.03167971 14.79336901 -17.03167971 14.79336901 -5.43371582 8.5521698 C-3.14657625 5.96320538 -1.34511488 3.17936245 0 0 Z " fill="#611115" transform="translate(308,289)"/>
<path d="M0 0 C2.60315514 0.0074721 5.20631595 0.01316045 7.80947876 0.01715088 C13.92550407 0.03078508 20.04119313 0.06220546 26.15709269 0.10254884 C33.81560959 0.1519528 41.47417561 0.17360809 49.1328125 0.1953125 C62.76845554 0.23407613 76.40346325 0.31423509 90.0390625 0.390625 C90.0390625 19.860625 90.0390625 39.330625 90.0390625 59.390625 C88.7190625 59.060625 87.3990625 58.730625 86.0390625 58.390625 C87.0290625 58.390625 88.0190625 58.390625 89.0390625 58.390625 C89.0390625 39.580625 89.0390625 20.770625 89.0390625 1.390625 C69.86812288 1.53934047 69.86812288 1.53934047 50.69726562 1.69726562 C42.88389014 1.763678 35.07051588 1.82898759 27.25708008 1.88793945 C20.96121106 1.93550832 14.66539848 1.98784813 8.36959648 2.04356575 C5.96172927 2.0640233 3.55384655 2.08273061 1.14595222 2.09969902 C-2.21387235 2.12366801 -5.57358911 2.15373247 -8.93334961 2.18530273 C-9.93963409 2.1910582 -10.94591858 2.19681366 -11.98269653 2.20274353 C-13.34785149 2.21742676 -13.34785149 2.21742676 -14.74058533 2.23240662 C-15.93384634 2.24208544 -15.93384634 2.24208544 -17.15121365 2.2519598 C-18.98204773 2.19472911 -18.98204773 2.19472911 -19.9609375 3.390625 C-21.48021788 3.46242464 -23.00261232 3.47454507 -24.5234375 3.453125 C-25.34972656 3.44410156 -26.17601562 3.43507813 -27.02734375 3.42578125 C-27.66542969 3.41417969 -28.30351562 3.40257813 -28.9609375 3.390625 C-29.2909375 4.380625 -29.6209375 5.370625 -29.9609375 6.390625 C-33.5909375 6.390625 -37.2209375 6.390625 -40.9609375 6.390625 C-41.2909375 7.380625 -41.6209375 8.370625 -41.9609375 9.390625 C-42.9509375 9.390625 -43.9409375 9.390625 -44.9609375 9.390625 C-45.2909375 10.380625 -45.6209375 11.370625 -45.9609375 12.390625 C-48.39453125 13.59375 -48.39453125 13.59375 -51.3984375 14.640625 C-52.88150391 15.17429687 -52.88150391 15.17429687 -54.39453125 15.71875 C-56.9609375 16.390625 -56.9609375 16.390625 -58.9609375 15.390625 C-55.4842 12.4816483 -51.98692598 10.08978633 -48.0234375 7.890625 C-47.02441406 7.3234375 -46.02539062 6.75625 -44.99609375 6.171875 C-30.29096925 -0.69174769 -15.90536934 -0.13472208 0 0 Z " fill="#922027" transform="translate(269.9609375,80.609375)"/>
<path d="M0 0 C-0.66 0.99 -1.32 1.98 -2 3 C-4.625 3.1875 -4.625 3.1875 -7 3 C-7.33 3.99 -7.66 4.98 -8 6 C-11.63 6 -15.26 6 -19 6 C-19.33 6.99 -19.66 7.98 -20 9 C-20.99 9 -21.98 9 -23 9 C-23.33 9.99 -23.66 10.98 -24 12 C-26.43359375 13.203125 -26.43359375 13.203125 -29.4375 14.25 C-30.92056641 14.78367187 -30.92056641 14.78367187 -32.43359375 15.328125 C-35 16 -35 16 -37 15 C-27.15150492 6.75979127 -13.21145226 -0.6162058 0 0 Z " fill="#591016" transform="translate(248,81)"/>
<path d="M0 0 C6.6887246 0.35076494 11.86311507 1.15884957 18 4 C20.21921712 4.5630236 22.4483081 5.01495831 24.69140625 5.47265625 C27.72161137 6.16483508 30.59250551 7.18562914 33.5234375 8.2109375 C37.45517329 9.46363565 41.47309699 10.34449319 45.49609375 11.25390625 C48 12 48 12 50 14 C43.04399951 13.42270898 36.69778579 11.9913513 30 10.0625 C22.12566759 7.82175869 22.12566759 7.82175869 14.16015625 5.94140625 C10.76390137 5.21288044 7.64624872 4.23080932 4.4375 2.875 C3.59058594 2.52179688 2.74367187 2.16859375 1.87109375 1.8046875 C1.25363281 1.53914062 0.63617188 1.27359375 0 1 C0 0.67 0 0.34 0 0 Z " fill="#761D24" transform="translate(226,241)"/>
<path d="M0 0 C1 3 1 3 -0.1875 5.6015625 C-8.22800679 19.0139596 -8.22800679 19.0139596 -13 24 C-13.66 24 -14.32 24 -15 24 C-15.2475 24.5775 -15.495 25.155 -15.75 25.75 C-17.16683317 28.3002997 -18.87627537 30.01785701 -21 32 C-21.66 31.67 -22.32 31.34 -23 31 C-22.67 28.69 -22.34 26.38 -22 24 C-18.535 23.505 -18.535 23.505 -15 23 C-14.67 21.68 -14.34 20.36 -14 19 C-12.68 18.67 -11.36 18.34 -10 18 C-10.20625 17.38125 -10.4125 16.7625 -10.625 16.125 C-10.74875 15.42375 -10.8725 14.7225 -11 14 C-10.34 13.34 -9.68 12.68 -9 12 C-8.01 12.33 -7.02 12.66 -6 13 C-6.33 11.35 -6.66 9.7 -7 8 C-5.68 8 -4.36 8 -3 8 C-3 6.02 -3 4.04 -3 2 C-2.01 2 -1.02 2 0 2 C0 1.34 0 0.68 0 0 Z " fill="#761921" transform="translate(366,313)"/>
<path d="M0 0 C5.96655894 5.96655894 4.98717422 18.81709916 5.1875 26.75 C5.12909822 33.87501775 3.97901756 40.95457006 3 48 C2.67 48 2.34 48 2 48 C2 36.12 2 24.24 2 12 C1.34 11.67 0.68 11.34 0 11 C0 7.37 0 3.74 0 0 Z " fill="#621417" transform="translate(369,253)"/>
<path d="M0 0 C2.475 0.495 2.475 0.495 5 1 C5 1.66 5 2.32 5 3 C5.99 3.33 6.98 3.66 8 4 C8.28875 4.639375 8.5775 5.27875 8.875 5.9375 C10.40880367 8.74947339 12.0503582 8.85574241 15 10 C16.5685936 10.93542376 18.11142468 11.91544656 19.625 12.9375 C20.38039062 13.44152344 21.13578125 13.94554687 21.9140625 14.46484375 C23.80472861 15.85628903 25.39789629 17.29074923 27 19 C17.7268168 19 9.6766097 10.43677642 3.3359375 4.390625 C1 2 1 2 0 0 Z " fill="#661519" transform="translate(199,221)"/>
<path d="M0 0 C0.66 0.33 1.32 0.66 2 1 C0.61087093 2.7553265 -0.78661773 4.50403907 -2.1875 6.25 C-2.96480469 7.22453125 -3.74210938 8.1990625 -4.54296875 9.203125 C-6.85655471 11.83671411 -9.27143714 13.82280477 -12 16 C-12.33 16.86625 -12.66 17.7325 -13 18.625 C-14 21 -14 21 -16.625 22.3125 C-17.40875 22.539375 -18.1925 22.76625 -19 23 C-17.79135813 19.56001929 -16.61442808 17.50075729 -14 15 C-13.67 14.01 -13.34 13.02 -13 12 C-9.00475293 7.64154865 -4.47586754 3.85391076 0 0 Z " fill="#6E151A" transform="translate(209,97)"/>
<path d="M0 0 C0.85696275 2.41805413 1.11869104 3.64523838 0.29296875 6.11328125 C-0.07183594 6.83902344 -0.43664062 7.56476563 -0.8125 8.3125 C-2.64468218 12.14686065 -3.89286646 15.88778969 -5 20 C-5.64199649 21.67632417 -6.29894157 23.34750513 -7 25 C-7.66 25 -8.32 25 -9 25 C-8.47110982 15.83257029 -4.8347362 7.7327506 0 0 Z " fill="#70161A" transform="translate(189,120)"/>
<path d="M0 0 C1.32 0.66 2.64 1.32 4 2 C-11.35674157 13 -11.35674157 13 -15 13 C-14.67 11.68 -14.34 10.36 -14 9 C-12.02 8.67 -10.04 8.34 -8 8 C-8 7.34 -8 6.68 -8 6 C-7.34 6 -6.68 6 -6 6 C-6 5.34 -6 4.68 -6 4 C-4.03852126 2.61061923 -2.03833424 1.2739589 0 0 Z " fill="#71161C" transform="translate(339,344)"/>
<path d="M0 0 C0.66 0 1.32 0 2 0 C2.03738281 0.72445312 2.07476562 1.44890625 2.11328125 2.1953125 C2.49753278 7.84607022 3.06846149 12.02913036 6 17 C6 17.66 6 18.32 6 19 C4.109375 18.71875 4.109375 18.71875 2 18 C-0.81270676 12.37458648 -1.71331684 7.2689576 -1 1 C-0.67 0.67 -0.34 0.34 0 0 Z " fill="#6D181C" transform="translate(242,160)"/>
<path d="M0 0 C1.875 0.125 1.875 0.125 4 1 C6.64978177 6.43205262 6.9071325 12.27860251 5 18 C4.67 18.66 4.34 19.32 4 20 C3.67 20 3.34 20 3 20 C2.92652344 18.46279297 2.92652344 18.46279297 2.8515625 16.89453125 C2.77648929 15.5338294 2.70094345 14.17315356 2.625 12.8125 C2.57859375 11.80219727 2.57859375 11.80219727 2.53125 10.77148438 C2.29896078 6.80321025 1.71612524 3.59270121 0 0 Z " fill="#5F1419" transform="translate(306,269)"/>
<path d="M0 0 C-0.639375 0.103125 -1.27875 0.20625 -1.9375 0.3125 C-2.618125 0.539375 -3.29875 0.76625 -4 1 C-4.33 1.99 -4.66 2.98 -5 4 C-7.43359375 5.203125 -7.43359375 5.203125 -10.4375 6.25 C-11.92056641 6.78367187 -11.92056641 6.78367187 -13.43359375 7.328125 C-16 8 -16 8 -18 7 C-5.95698925 -2.97849462 -5.95698925 -2.97849462 0 0 Z " fill="#941F27" transform="translate(229,89)"/>
<path d="M0 0 C0.33 0 0.66 0 1 0 C0.67 2.31 0.34 4.62 0 7 C-0.66 7 -1.32 7 -2 7 C-2.1546875 7.8971875 -2.1546875 7.8971875 -2.3125 8.8125 C-3.12881961 11.40988059 -3.87012157 12.31851703 -6 14 C-8.48046875 14.51171875 -8.48046875 14.51171875 -11.1875 14.6875 C-12.08855469 14.75324219 -12.98960937 14.81898438 -13.91796875 14.88671875 C-14.94857422 14.94279297 -14.94857422 14.94279297 -16 15 C-13 13 -13 13 -10.125 11.75 C-5.27885785 9.0361604 -2.18290331 5.15958965 0 0 Z " fill="#631419" transform="translate(308,289)"/>
<path d="M0 0 C5.6555181 0.60503854 11.00213991 1.62185703 16.5 3.0625 C17.59054687 3.3419043 17.59054687 3.3419043 18.703125 3.62695312 C20.46987724 4.08026455 22.23510775 4.5395002 24 5 C24 5.33 24 5.66 24 6 C15.51739156 5.67589507 7.94819063 5.20716464 0 2 C0 1.34 0 0.68 0 0 Z " fill="#5C1215" transform="translate(275,191)"/>
<path d="M0 0 C3.32267541 3.0114008 5.29901994 6.00301725 7.3125 10 C7.84488281 11.03125 8.37726563 12.0625 8.92578125 13.125 C10.02641449 16.07069477 10.17205481 17.14868537 9 20 C6.30587786 17.30587786 6.00442582 14.64104358 5 11 C4.17657468 8.68019054 4.17657468 8.68019054 3 7 C2.01 6.67 1.02 6.34 0 6 C0 4.02 0 2.04 0 0 Z " fill="#5C1218" transform="translate(92,56)"/>
<path d="M0 0 C6.60618704 0.6606187 12.46936302 3.09064105 17 8 C10.77012202 7.49487476 5.54525767 4.67395877 0 2 C0 1.34 0 0.68 0 0 Z " fill="#5E1316" transform="translate(320,203)"/>
<path d="M0 0 C1.98 0.99 1.98 0.99 4 2 C4 2.66 4 3.32 4 4 C4.5775 4.2475 5.155 4.495 5.75 4.75 C8.32939979 6.18299988 10.06121592 7.78424676 12 10 C12 10.66 12 11.32 12 12 C12.99 12.33 13.98 12.66 15 13 C14.67 13.66 14.34 14.32 14 15 C13.01 14.34 12.02 13.68 11 13 C11 12.34 11 11.68 11 11 C9.68 10.67 8.36 10.34 7 10 C7 9.01 7 8.02 7 7 C5.35 6.67 3.7 6.34 2 6 C1.34 4.02 0.68 2.04 0 0 Z " fill="#5E1315" transform="translate(342,214)"/>
<path d="M0 0 C8.87234165 -0.38575398 16.82302409 1.66863944 25 5 C25 5.33 25 5.66 25 6 C16.40131562 5.38580826 8.30515248 3.19092979 0 1 C0 0.67 0 0.34 0 0 Z " fill="#460E11" transform="translate(251,249)"/>
<path d="M0 0 C3.21043882 1.38188453 5.04936365 2.92421903 7.25 5.625 C8.03117187 6.57246094 8.03117187 6.57246094 8.828125 7.5390625 C9.40820312 8.26222656 9.40820312 8.26222656 10 9 C9.67 9.66 9.34 10.32 9 11 C8.01 10.34 7.02 9.68 6 9 C5.01 9.33 4.02 9.66 3 10 C2.87625 9.195625 2.7525 8.39125 2.625 7.5625 C2.315625 6.2940625 2.315625 6.2940625 2 5 C1.34 4.67 0.68 4.34 0 4 C0 2.68 0 1.36 0 0 Z " fill="#6A1519" transform="translate(82,45)"/>
<path d="M0 0 C0.66 0.66 1.32 1.32 2 2 C-5.26 2 -12.52 2 -20 2 C-20 1.34 -20 0.68 -20 0 C-13.30952203 -0.92527887 -6.65749342 -1.47233027 0 0 Z " fill="#6D161A" transform="translate(58,31)"/>
<path d="M0 0 C0.57073242 0.30341309 1.14146484 0.60682617 1.72949219 0.91943359 C3.92571438 1.96464643 5.98468974 2.65298722 8.328125 3.2890625 C9.52695312 3.61777344 9.52695312 3.61777344 10.75 3.953125 C11.9875 4.28570312 11.9875 4.28570312 13.25 4.625 C14.09046875 4.85445312 14.9309375 5.08390625 15.796875 5.3203125 C17.86356509 5.88395525 19.93164936 6.44248162 22 7 C22 7.33 22 7.66 22 8 C19.32689452 7.69738429 16.665879 7.35822749 14 7 C13.05125 6.88914063 12.1025 6.77828125 11.125 6.6640625 C3.48986062 5.58783275 3.48986062 5.58783275 0.8125 2.375 C0.544375 1.59125 0.27625 0.8075 0 0 Z " fill="#400B0D" transform="translate(252,183)"/>
<path d="M0 0 C1 3 1 3 -0.43359375 5.91796875 C-1.09488281 6.99691406 -1.75617188 8.07585937 -2.4375 9.1875 C-3.09621094 10.27417969 -3.75492187 11.36085938 -4.43359375 12.48046875 C-5.20896484 13.72763672 -5.20896484 13.72763672 -6 15 C-7.231394 12.53721199 -7.07159196 10.7204945 -7 8 C-5.68 8 -4.36 8 -3 8 C-3 6.02 -3 4.04 -3 2 C-2.01 2 -1.02 2 0 2 C0 1.34 0 0.68 0 0 Z " fill="#5C1015" transform="translate(366,313)"/>
<path d="M0 0 C5.4389165 -0.21755666 9.87080814 -0.10428384 15 2 C15 2.66 15 3.32 15 4 C9.76119922 3.44854729 5.02649303 2.57077907 0 1 C0 0.67 0 0.34 0 0 Z " fill="#5D1517" transform="translate(277,255)"/>
<path d="M0 0 C2.64 0 5.28 0 8 0 C7 2 7 2 4 3.125 C-0.32229088 4.27521462 -4.55956873 4.18124209 -9 4 C-9 3.67 -9 3.34 -9 3 C-6.36 3 -3.72 3 -1 3 C-0.67 2.01 -0.34 1.02 0 0 Z " fill="#6B1618" transform="translate(305,360)"/>
<path d="M0 0 C1.77174819 0.08723378 3.54247377 0.19541655 5.3125 0.3125 C6.29863281 0.37050781 7.28476563 0.42851562 8.30078125 0.48828125 C11.32978349 1.06252046 12.06477449 1.70156501 14 4 C14.99 4.66 15.98 5.32 17 6 C10.81839396 5.46246904 5.673142 3.45417612 0 1 C0 0.67 0 0.34 0 0 Z " fill="#510F13" transform="translate(226,241)"/>
<path d="M0 0 C0.33 0 0.66 0 1 0 C1.625 3.375 1.625 3.375 2 7 C1.34 7.66 0.68 8.32 0 9 C-0.6425235 11.06874034 -0.6425235 11.06874034 -1 13 C-1.66 13 -2.32 13 -3 13 C-2.52060632 8.28596212 -2.03165952 4.33420699 0 0 Z " fill="#631317" transform="translate(183,132)"/>
<path d="M0 0 C-0.33 0.66 -0.66 1.32 -1 2 C0.32 2.66 1.64 3.32 3 4 C-2.52677733 4.19392201 -6.75614911 3.7479503 -12 2 C-12 1.67 -12 1.34 -12 1 C-7.93631321 0.22596442 -4.13574827 -0.0984702 0 0 Z " fill="#961E27" transform="translate(281,251)"/>
<path d="M0 0 C5.26170694 1.41167747 8.72171358 3.74850232 13 7 C12.01 7.495 12.01 7.495 11 8 C9.16015625 7.2578125 9.16015625 7.2578125 7.0625 6.125 C4.67865342 4.85064463 2.58115056 3.86038352 0 3 C0 2.01 0 1.02 0 0 Z " fill="#5A1213" transform="translate(69,37)"/>
<path d="M0 0 C5.94 0.99 5.94 0.99 12 2 C12 2.33 12 2.66 12 3 C11.39671875 2.96519531 10.7934375 2.93039063 10.171875 2.89453125 C5.07474512 2.6485551 5.07474512 2.6485551 0.4375 4.5 C-0.036875 4.995 -0.51125 5.49 -1 6 C-1.33 5.01 -1.66 4.02 -2 3 C-1.34 2.01 -0.68 1.02 0 0 Z " fill="#961E24" transform="translate(254,187)"/>
<path d="M0 0 C1.98 0.66 3.96 1.32 6 2 C4.35 3.98 2.7 5.96 1 8 C0.34 7.67 -0.32 7.34 -1 7 C-0.67 4.69 -0.34 2.38 0 0 Z " fill="#6F131A" transform="translate(344,337)"/>
<path d="M0 0 C0.33 0 0.66 0 1 0 C0.7589852 6.14587738 0.7589852 6.14587738 -1.40234375 8.578125 C-2.88046971 9.78844931 -4.43647953 10.90220903 -6 12 C-6.66 11.67 -7.32 11.34 -8 11 C-7.38511719 10.31164062 -7.38511719 10.31164062 -6.7578125 9.609375 C-6.21898437 8.99578125 -5.68015625 8.3821875 -5.125 7.75 C-4.59132813 7.14671875 -4.05765625 6.5434375 -3.5078125 5.921875 C-2.0202513 4.02581254 -0.99677564 2.18709995 0 0 Z " fill="#430C0E" transform="translate(308,289)"/>
<path d="M0 0 C0 0.66 0 1.32 0 2 C-0.99 2 -1.98 2 -3 2 C-3 2.99 -3 3.98 -3 5 C-8.625 7 -8.625 7 -12 7 C-3.55172414 0 -3.55172414 0 0 0 Z " fill="#4E0F13" transform="translate(223,89)"/>
<path d="M0 0 C1.5 1.125 1.5 1.125 3 3 C3.1875 6.1875 3.1875 6.1875 3 9 C2.01 8.67 1.02 8.34 0 8 C0 5.36 0 2.72 0 0 Z " fill="#9B1B21" transform="translate(353,322)"/>
<path d="M0 0 C5.53846154 0.61538462 5.53846154 0.61538462 7.875 2.5625 C8.431875 3.2740625 8.431875 3.2740625 9 4 C6.69 4 4.38 4 2 4 C2 3.01 2 2.02 2 1 C1.34 0.67 0.68 0.34 0 0 Z " fill="#571114" transform="translate(60,33)"/>
<path d="M0 0 C1.98 0.99 1.98 0.99 4 2 C4 2.66 4 3.32 4 4 C4.66 4 5.32 4 6 4 C5.67 4.99 5.34 5.98 5 7 C4.01 6.67 3.02 6.34 2 6 C0.8125 2.9375 0.8125 2.9375 0 0 Z " fill="#6E141B" transform="translate(342,214)"/>
<path d="M0 0 C2.50298434 2.93828597 3.46930939 5.17902761 4 9 C3.01 8.67 2.02 8.34 1 8 C0.67 5.36 0.34 2.72 0 0 Z " fill="#4C0E11" transform="translate(365,242)"/>
<path d="M0 0 C5.78461538 3.32307692 5.78461538 3.32307692 6.875 6.75 C6.936875 7.86375 6.936875 7.86375 7 9 C4.03595495 6.19195732 1.55500981 3.81684226 0 0 Z " fill="#4E0B0F" transform="translate(192,212)"/>
<path d="M0 0 C1.98 0 3.96 0 6 0 C6.66 1.32 7.32 2.64 8 4 C2.25 2.25 2.25 2.25 0 0 Z " fill="#5E1317" transform="translate(293,259)"/>
<path d="M0 0 C0.33 1.32 0.66 2.64 1 4 C1.66 4 2.32 4 3 4 C3.33 5.65 3.66 7.3 4 9 C1.24338912 6.51015791 -0.60746455 4.79450934 -1 1 C-0.67 0.67 -0.34 0.34 0 0 Z " fill="#6B1418" transform="translate(188,202)"/>
</svg>
